<svg xmlns="http://www.w3.org/2000/svg" version="1.1" xmlns:xlink="http://www.w3.org/1999/xlink" xmlns:svgjs="http://svgjs.com/svgjs" width="512" height="512" x="0" y="0" viewBox="0 0 512 512" style="enable-background:new 0 0 512 512" xml:space="preserve" class=""><g><path d="M181.2 32a32 32 0 0 1-32 32H64v85.2a32 32 0 0 1-64 0V32A32 32 0 0 1 32 0h117.2a32 32 0 0 1 32 32zm-32 416H64v-85.2a32 32 0 0 0-64 0V480a32 32 0 0 0 32 32h117.2a32 32 0 1 0 0-64zM480 330.8a32 32 0 0 0-32 32V448h-85.2a32 32 0 1 0 0 64H480a32 32 0 0 0 32-32V362.8a32 32 0 0 0-32-32zM480 0H362.8a32 32 0 0 0 0 64H448v85.2a32 32 0 1 0 64 0V32a32 32 0 0 0-32-32z" fill="#ffffff" data-original="#000000" class=""></path></g></svg>