<svg xmlns="http://www.w3.org/2000/svg" version="1.1" xmlns:xlink="http://www.w3.org/1999/xlink" xmlns:svgjs="http://svgjs.com/svgjs" width="512" height="512" x="0" y="0" viewBox="0 0 32 32" style="enable-background:new 0 0 512 512" xml:space="preserve"><g><path d="M11.144.33a1.896 1.896 0 0 0-1.852 1.906v7.388H1.95c-.554-.007-1.093.229-1.427.601s-.479.833-.479 1.28.145.908.479 1.28.873.608 1.427.601h9.223a1.896 1.896 0 0 0 1.881-1.881V2.236A1.897 1.897 0 0 0 11.144.33zm9.653-.023a1.897 1.897 0 0 0-1.852 1.91v9.219c0 1.027.854 1.881 1.881 1.881h9.267c.554.008 1.093-.229 1.427-.602.335-.371.48-.832.48-1.279s-.145-.908-.479-1.281c-.334-.371-.873-.607-1.427-.6h-7.386V2.217a1.896 1.896 0 0 0-1.911-1.91zm.03 18.306c-1.027 0-1.88.854-1.881 1.881v9.267c-.007.554.229 1.093.601 1.427s.833.479 1.28.479.908-.146 1.28-.479.608-.873.601-1.427v-7.386h7.34c.554.008 1.093-.229 1.427-.601s.479-.833.479-1.28-.146-.908-.479-1.28c-.334-.372-.873-.608-1.427-.601zm-18.921.069c-.554-.008-1.093.229-1.427.6-.334.372-.479.833-.479 1.281s.145.908.479 1.279c.334.373.873.609 1.427.602h7.386v7.341c-.007.554.229 1.093.601 1.427.372.335.833.48 1.28.48s.908-.146 1.28-.48.608-.873.601-1.427v-9.222a1.896 1.896 0 0 0-1.881-1.881z" fill="#ffffff" data-original="#000000"></path></g></svg>