<svg xmlns="http://www.w3.org/2000/svg" version="1.1" xmlns:xlink="http://www.w3.org/1999/xlink" xmlns:svgjs="http://svgjs.com/svgjs" width="512" height="512" x="0" y="0" viewBox="2 2 20 20" style="enable-background:new 0 0 512 512" xml:space="preserve" class=""><g><path fill="#ffffff" fill-rule="evenodd" d="M4 17V7h16v10zM2 5.5a.5.5 0 0 1 .5-.5h19a.5.5 0 0 1 .5.5v13a.5.5 0 0 1-.5.5h-19a.5.5 0 0 1-.5-.5zM12.5 11a.5.5 0 0 0-.5.5v4a.5.5 0 0 0 .5.5h6a.5.5 0 0 0 .5-.5v-4a.5.5 0 0 0-.5-.5z" clip-rule="evenodd" data-original="#000000"></path></g></svg>